<svg xmlns="http://www.w3.org/2000/svg" viewBox="0 0 512 512" role="img" aria-label="LUMI">
  <defs>
    <linearGradient id="bg" x1="0" y1="0" x2="1" y2="1">
      <stop offset="0" stop-color="#ffe5f1"/>
      <stop offset="1" stop-color="#ffd7e9"/>
    </linearGradient>
  </defs>
  <rect x="16" y="16" width="480" height="480" rx="108" fill="url(#bg)"/>
  <g fill="#7a3f59" transform="translate(64 64)">
    <rect x="24" y="24" width="40" height="40" rx="10"/><rect x="80" y="24" width="40" height="40" rx="10"/><rect x="136" y="24" width="40" height="40" rx="10"/><rect x="192" y="24" width="40" height="40" rx="10"/><rect x="248" y="24" width="40" height="40" rx="10"/><rect x="304" y="24" width="40" height="40" rx="10"/>
    <rect x="24" y="80" width="40" height="40" rx="10"/><rect x="136" y="80" width="40" height="40" rx="10"/><rect x="304" y="80" width="40" height="40" rx="10"/>
    <rect x="24" y="136" width="40" height="40" rx="10"/><rect x="136" y="136" width="40" height="40" rx="10"/><rect x="248" y="136" width="40" height="40" rx="10"/><rect x="304" y="136" width="40" height="40" rx="10"/>
    <rect x="24" y="192" width="40" height="40" rx="10"/><rect x="136" y="192" width="40" height="40" rx="10"/><rect x="192" y="192" width="40" height="40" rx="10"/><rect x="304" y="192" width="40" height="40" rx="10"/>
    <rect x="24" y="248" width="40" height="40" rx="10"/><rect x="80" y="248" width="40" height="40" rx="10"/><rect x="136" y="248" width="40" height="40" rx="10"/><rect x="248" y="248" width="40" height="40" rx="10"/><rect x="304" y="248" width="40" height="40" rx="10"/>
    <rect x="24" y="304" width="40" height="40" rx="10"/><rect x="80" y="304" width="40" height="40" rx="10"/><rect x="136" y="304" width="40" height="40" rx="10"/><rect x="192" y="304" width="40" height="40" rx="10"/><rect x="248" y="304" width="40" height="40" rx="10"/><rect x="304" y="304" width="40" height="40" rx="10"/>
  </g>
</svg>
